<svg id="filled_outline" height="512" viewBox="0 0 512 512" width="512" xmlns="http://www.w3.org/2000/svg" data-name="filled outline"><path d="m392 136v-32h-17.60352a79.52249 79.52249 0 0 0 -11.66113-28.10791l12.46065-12.46069-22.6274-22.6274-12.46069 12.46065a79.52249 79.52249 0 0 0 -28.10791-11.66113v-17.60352h-32v17.60352a79.52249 79.52249 0 0 0 -28.10791 11.66113l-12.46069-12.46065-22.6274 22.6274 12.46069 12.46069a79.52249 79.52249 0 0 0 -11.66117 28.10791h-17.60352v32h17.60352a79.52249 79.52249 0 0 0 11.66113 28.10791l-12.46065 12.46069 22.6274 22.6274 12.46069-12.46069a79.52249 79.52249 0 0 0 28.10791 11.66117v17.60352h32v-17.60352a79.52249 79.52249 0 0 0 28.10791-11.66113l12.46069 12.46065 22.6274-22.6274-12.46069-12.46069a79.52249 79.52249 0 0 0 11.66117-28.10791zm-96 24a40 40 0 1 1 40-40 40.0001 40.0001 0 0 1 -40 40z" fill="#f5714f"/><path d="m184 232h56v24h-56z" fill="#4b6275"/><path d="m155.2 344 28.8 144h-16l-48-144z" fill="#db8638"/><path d="m52.8 344-28.8 144h16l48-144z" fill="#db8638"/><path d="m240 368h-152a64 64 0 0 1 -64-64v-72a24 24 0 0 1 24-24h16v80a40 40 0 0 0 40 40h136z" fill="#e0edff"/><path d="m344 456-34.14568-143.41186a32 32 0 0 0 -31.1298-24.58814h-174.72452a48 48 0 0 0 48 48h112l32 136h16z" fill="#ffb401"/><path d="m312 472h-16v16h80v-16l-32-16z" fill="#c5dafa"/><path d="m224 232h-50l-12.85986-17.14014-17.14014-22.85986 4.41992 13.27a18.31408 18.31408 0 0 1 -4.41992 18.73v64h-88v-72.16992a33.94052 33.94052 0 0 1 25.93994-55.83008h63.68994a32.02415 32.02415 0 0 1 23.92017 10.74l16.80005 18.9099z" fill="#ffceb6"/><path d="m161.14014 214.85986-17.14014-22.85986 4.41992 13.27a18.31408 18.31408 0 0 1 -4.41992 18.73v64h-88v-72.16992a33.94052 33.94052 0 0 1 25.93994-55.83008h63.68994a32.02415 32.02415 0 0 1 23.92017 10.74l16.80005 18.9099z" fill="#548aff"/><path d="m112 256h376v32h-376z" fill="#ea964b"/><path d="m128 136v32l-16 16-16-16v-32z" fill="#ffceb6"/><path d="m72 232 24-24 16 16h56a24 24 0 0 1 24 24v8h-82.74517a32 32 0 0 1 -22.62741-9.37258z" fill="#ffceb6"/><path d="m288 256 16-80h-56l-16 80z" fill="#62798c"/><path d="m296 456-34.14568-143.41186a32 32 0 0 0 -31.1298-24.58814h-174.72452a48 48 0 0 0 48 48h112l48 136z" fill="#ffc431"/><path d="m264 472v16h64v-16l-32-16z" fill="#e0edff"/><path d="m328 96h160v104h-160z" fill="#8098ab"/><path d="m336 256v-24h56v-72h40v96z" fill="#62798c"/><path d="m384 288h64v32h-64z" fill="#db8638"/><path d="m416 320-32 168h-24l24-168z" fill="#c47220"/><path d="m416 320 32 168h24l-24-168z" fill="#c47220"/><path d="m144 288h64v32h-64z" fill="#db8638"/><path d="m176 320-32 168h-24l24-168z" fill="#c47220"/><path d="m176 320 32 168h24l-24-168z" fill="#c47220"/><circle cx="96" cy="112" fill="#b66514" r="24"/><path d="m96 136v-16a16 16 0 0 1 16-16 16 16 0 0 1 16 16v16z" fill="#c47220"/><path d="m104 120a27.31368 27.31368 0 0 0 19.31369 8h4.68631v16a16 16 0 0 1 -16 16 16 16 0 0 1 -16-16v-16z" fill="#ffceb6"/><path d="m488.0001 88h-160a8.00039 8.00039 0 0 0 -8 8v104a8.00039 8.00039 0 0 0 8 8h56v16h-48a8.00039 8.00039 0 0 0 -8 8v16h-30.24146l14.08619-70.43066a8.00012 8.00012 0 0 0 -7.84473-9.56934h-56a8 8 0 0 0 -7.84473 6.43066l-9.91382 49.56934h-2.64917l-52.06591-58.5752a40.03671 40.03671 0 0 0 -29.89647-13.4248h-9.6299v-32a23.98334 23.98334 0 0 0 -10.20191-19.6189 31.993 31.993 0 1 0 -37.79809 42.6062v9.0127h-6.0586a41.98841 41.98841 0 0 0 -41.9414 41.94141 42.4275 42.4275 0 0 0 .5791 6.93676 32.05029 32.05029 0 0 0 -24.5791 31.12183v72a71.85984 71.85984 0 0 0 25.63647 55.02588l-25.4812 127.40478a8.00012 8.00012 0 0 0 7.84473 9.56934h16a8.00026 8.00026 0 0 0 7.58984-5.46973l15.16431-45.49292 41.24585-28.87207 16.52783 11.56958-8.44775 59.1333a8.00061 8.00061 0 0 0 7.91992 9.13184h24a7.99953 7.99953 0 0 0 7.8584-6.50293l2.98462-15.66943 5.56713 16.70166a7.99989 7.99989 0 0 0 7.58985 5.4707h16a8.00012 8.00012 0 0 0 7.84473-9.56934l-20.18189-100.90722 1.81397-9.52344h5.04638l21.61841 113.49707a7.99953 7.99953 0 0 0 7.8584 6.50293h24a8.00062 8.00062 0 0 0 7.91992-9.13184l-14.17383-99.21753 30.25391 85.71949v14.62988a8.00039 8.00039 0 0 0 8 8h120a7.99953 7.99953 0 0 0 7.8584-6.50293l24.1416-126.74341 24.1416 126.74341a7.99953 7.99953 0 0 0 7.8584 6.50293h24a8.00062 8.00062 0 0 0 7.91992-9.13184l-23.91992-167.43945v-23.42871h32a8.00039 8.00039 0 0 0 8-8v-32a8.00039 8.00039 0 0 0 -8-8h-48v-40h48a8.00039 8.00039 0 0 0 8-8v-104a8.00039 8.00039 0 0 0 -8-8zm-233.44141 96h39.68262l-12.79981 64h-39.68286zm-54.55859 112v16h-16v-16zm-32 16h-16v-16h16zm-82.2146 63.94385c.7373.02246 1.47192.05615 2.2146.05615h34.2334l2.12744 6.38208-20.36084 14.25269-20.36084-14.25245zm50.2146-56.51514-1.22461 8.57129h-30.77539a40.04583 40.04583 0 0 1 -40-40h40a8.00039 8.00039 0 0 0 8 8h24zm-55.03027-67.14453a39.695 39.695 0 0 0 23.03027 11.365v8.35082h-40v-36.68555zm28.28517-4.28418a23.84267 23.84267 0 0 1 -16.9707-7.03027l-8.96975-8.96973 12.68555-12.68555 10.34277 10.34278a8.00235 8.00235 0 0 0 5.65723 2.34277h56a16.01833 16.01833 0 0 1 16 16zm89.73242-8h28.0542l-1.6001 8h-25.44142a31.95275 31.95275 0 0 0 -1.0127-8zm-9.85547-16a31.87788 31.87788 0 0 0 -16.917-7.71362l-.50854-.67823 14.30444-14.30444 20.1748 22.69629zm-69.14695-104.30176a19.15265 19.15265 0 0 1 -10.32763-5.35547 7.979 7.979 0 0 0 -1.65577-1.26123 7.97751 7.97751 0 0 1 11.9834 6.6167zm.0151 24.30176a8 8 0 0 1 -16 0v-12.68652l.63965-.63965a34.974 34.974 0 0 0 15.36035 5.17383zm-2.72144 23.408-5.27856 5.27856-5.27857-5.27856a23.82758 23.82758 0 0 0 10.55713 0zm-37.27856-55.408a15.99469 15.99469 0 0 1 23.15967-14.30542 24.03365 24.03365 0 0 0 -15.15967 22.30542v5.835a15.99656 15.99656 0 0 1 -8-13.835zm1.9414 56h6.0586a8.00235 8.00235 0 0 0 2.34277 5.65723l16 16a8.00181 8.00181 0 0 0 11.31446 0l16-16a8.00235 8.00235 0 0 0 2.34277-5.65723h9.6299a24.01678 24.01678 0 0 1 17.9375 8.05469l11.79444 13.269-13.35354 13.35356-11.60791-15.477a8.00028 8.00028 0 0 0 -13.99024 7.3291l4.42286 13.26758a10.24258 10.24258 0 0 1 -.73218 8.20307h-24.78735l-29.65625-29.65723-11.31446 11.31446 10.34278 10.34277-12.68555 12.68555-8.40137-8.40137a25.9406 25.9406 0 0 1 18.34277-44.28418zm-49.9414 136v-72a16.02146 16.02146 0 0 1 14.32007-15.91016c.52978.84839 1.0874 1.6814 1.67993 2.49414v69.41602a56.0629 56.0629 0 0 0 56 56h28.48974l-2.28564 16h-42.2041a56.0629 56.0629 0 0 1 -56-56zm2.23437 176h-.47558l22.29956-111.49756a71.46677 71.46677 0 0 0 13.63061 5.13062zm37.01123-60.43726 7.115-21.345 11.689 8.18213zm46.70459-13.16259 6.25049-4.37525-1.13647 7.95484zm19.42971 73.59985h-8.15625l21.71509-152h15.3938zm36.86133 0h-.47559l-12.78955-38.37109 2.7273-14.31787zm40.37891 0-28.95266-152h15.3938l21.71509 152zm8.92376-146.66211a7.9994 7.9994 0 0 0 -6.30566-5.24072l-1.23828-8.66846v-23.42871h14.72461a23.92019 23.92019 0 0 1 23.34765 18.44043l32.67627 137.241-18.2207 9.11035zm168.4561-37.33789h16v16h-16zm-16 23.42871-19.15039 134.05176-5.93164-2.96582-33.28125-139.78027a40.07824 40.07824 0 0 0 -6.88452-14.73438h65.2478zm-40 160.57129v-8a7.96418 7.96418 0 0 0 -.52344-2.79395l8.52393-4.262 10.46435 5.23169-1.40356 9.82426zm-33.92774-165.55957 32.67627 137.241-14.74853 7.37426-17.082-8.541-33.28128-139.78031a40.07824 40.07824 0 0 0 -6.88452-14.73438h15.97241a23.92019 23.92019 0 0 1 23.34765 18.44043zm17.92774 165.55957h-48v-3.05566l24-12 24 12zm57.3799 0h-8.15625l21.71509-152h15.3938zm77.24024 0-28.95266-152h15.3938l21.71509 152zm-14.62014-168h-16v-16h16zm40-32h-360v-16h360zm-136-32v-8h48a8.00039 8.00039 0 0 0 8-8v-64h24v80zm136-56h-40v-32a8.00039 8.00039 0 0 0 -8-8h-40a8.00039 8.00039 0 0 0 -8 8v32h-48v-88h144z"/><path d="m200.0001 96a8.00039 8.00039 0 0 0 -8 8v32a8.00039 8.00039 0 0 0 8 8h11.3164a87.29424 87.29424 0 0 0 11.27833 24.52539l13.33984-8.83594a71.26836 71.26836 0 0 1 -10.49121-25.28125 7.99972 7.99972 0 0 0 -7.83985-6.4082h-9.60351v-16h9.60351a7.99972 7.99972 0 0 0 7.83985-6.4082 71.26836 71.26836 0 0 1 10.49121-25.28125 8.00219 8.00219 0 0 0 -1.0127-10.0752l-6.80468-6.80371 11.31445-11.31445 6.80371 6.80469a8.001 8.001 0 0 0 10.0752 1.01269 71.26836 71.26836 0 0 1 25.28125-10.49121 7.99972 7.99972 0 0 0 6.4082-7.83984v-9.60352h16v9.60352a7.99972 7.99972 0 0 0 6.4082 7.83984 71.26836 71.26836 0 0 1 25.28125 10.49121 8.00057 8.00057 0 0 0 10.0752-1.01269l6.80371-6.80469 16.9707 16.97168 11.31445-11.31446-22.62793-22.62793a8.003 8.003 0 0 0 -11.31445 0l-8.01269 8.01368a86.91829 86.91829 0 0 0 -18.89844-7.84375v-11.31641a8.00039 8.00039 0 0 0 -8-8h-32a8.00039 8.00039 0 0 0 -8 8v11.31641a86.91829 86.91829 0 0 0 -18.89844 7.84375l-8.01266-8.01368a8.003 8.003 0 0 0 -11.31446 0l-22.62796 22.62793a8.00122 8.00122 0 0 0 0 11.31446l8.01367 8.01269a86.91928 86.91928 0 0 0 -7.84375 18.89844z"/><path d="m296.0001 88a31.76227 31.76227 0 0 1 12.7969 2.65918l6.40625-14.66211a48.007 48.007 0 0 0 -48.01269 82.39844l9.61133-12.791a32.00211 32.00211 0 0 1 19.19821-57.60451z"/></svg>